<?xml version="1.0" encoding="utf-8"?>
<!-- Generator: Adobe Illustrator 17.0.0, SVG Export Plug-In . SVG Version: 6.00 Build 0)  -->
<!DOCTYPE svg PUBLIC "-//W3C//DTD SVG 1.1//EN" "http://www.w3.org/Graphics/SVG/1.1/DTD/svg11.dtd">
<svg version="1.1" id="Layer_1" xmlns="http://www.w3.org/2000/svg" xmlns:xlink="http://www.w3.org/1999/xlink" x="0px" y="0px"
	 width="250.85px" height="63.345px" viewBox="0 0 250.85 63.345" enable-background="new 0 0 250.85 63.345" xml:space="preserve">
<g>
	<path fill-rule="evenodd" clip-rule="evenodd" fill="#5DA552" d="M152.92,27.958c3.919,0,6.854-1.264,6.82-4.469
		c-0.066-6.392-16.063-3.492-16.066-14.846c-0.001-6.696,6.14-8.42,11.843-8.428c2.329-0.003,4.617,0.376,6.446,0.914
		c0.884,0.26,1.286,0.505,1.285,1.503l-0.001,5.296h-4.349V6.356c0-1.423-2.013-1.655-3.188-1.658
		c-2.543-0.007-6.413,0.342-6.449,3.84c-0.063,6.099,16.066,3.501,16.066,14.864c0,6.241-4.676,9.039-12.728,9.039
		c-2.67,0-5.608-0.554-8.124-1.501c-0.726-0.273-1.069-0.58-1.069-1.351v-6.691h4.787v3.255
		C148.194,27.593,151.55,27.958,152.92,27.958"/>
	<path fill-rule="evenodd" clip-rule="evenodd" fill="#5DA552" d="M180.657,16.167c0.042-1.635-1.282-2.526-2.874-2.523
		c-2.368,0.005-5.33,1.985-5.275,6.433c0.587,0.162,1.323,0.275,1.999,0.274C177.018,20.348,180.579,19.16,180.657,16.167z
		 M243.063,16.167c0.042-1.635-1.282-2.526-2.875-2.523c-2.367,0.005-5.329,1.985-5.274,6.433c0.587,0.162,1.323,0.275,1.998,0.274
		C239.423,20.348,242.984,19.16,243.063,16.167z M250.85,29.304c-2.457,1.75-5.456,2.772-8.664,2.772
		c-17.304,0-16.237-23.031-1.748-23.007c4.195,0.008,7.986,2.47,7.986,7.186c0,5.983-7.24,8.966-12.712,7.736
		c1.103,2.151,3.401,3.632,7.297,3.613c2.507,0,4.756-0.847,6.499-2.26L250.85,29.304z M189.552,28.155
		c-2.22,2.711-6.482,3.921-9.771,3.921c-17.304,0-16.237-23.031-1.748-23.007c4.195,0.008,7.987,2.47,7.987,7.186
		c0,5.983-7.241,8.966-12.713,7.736c1.104,2.151,3.402,3.632,7.297,3.613c3.941,0,7.247-2.094,8.948-5.188v-8.504
		c0-0.56-0.486-1.118-1.126-1.118h-0.556V9.44h3.915c1.729,0,3.058,1.264,3.311,2.814c1.926-1.943,4.3-2.814,7.01-2.814
		c3.259,0,5.327,2.154,5.328,5.377v11.344c0,1.115,0.927,1.785,1.785,1.785c0.444,0,0.853-0.084,1.218-0.234v-3.854h4.227
		l0.001,2.912c0,1.185,2.552,1.303,3.349,1.296c1.985-0.017,4.479-0.503,4.479-2.507c0-4.561-11.827-3.243-11.909-10.008
		c-0.067-5.642,5.521-6.478,9.293-6.478c2.744,0,5.555,0.39,6.282,0.715c0.392,0.176,0.664,0.559,0.664,1.018v4.276h-3.712v-0.556
		c0-1.384-1.905-1.427-2.881-1.427c-1.423,0-4.061,0.107-4.061,2.066c0,3.471,11.988,2.121,11.906,10.206
		c-0.053,5.303-5.588,6.703-9.924,6.703c-2.239,0-4.704-0.262-6.813-1.057c-0.054-0.021-0.107-0.042-0.16-0.064
		c-1.088,0.699-2.379,1.106-3.754,1.106c-3.036,0-5.572-2.069-5.573-5.233l-0.004-10.682c-0.001-3.708-6.705-2.594-6.705,2.135
		v13.515h-4.473c-0.622,0-1.116-0.493-1.116-1.117V28.155z"/>
	<path fill-rule="evenodd" clip-rule="evenodd" fill="#5DA552" d="M34.881,31.795h-4.21c-2.087,0-2.842-0.889-3.02-3.021
		L26.63,13.607l-0.044-4.33l-7.062,22.519h-4.166L8.296,9.277l-0.044,4.33L7.23,28.774c-0.178,2.132-0.934,3.021-3.019,3.021H0
		v-3.36h0.656c0.621,0,0.934-0.355,0.977-0.977l2.16-26.959h6.323l6.661,20.194l0.662,2.559l0.663-2.559l6.661-20.194h6.323
		l2.16,26.959c0.045,0.622,0.355,0.977,0.976,0.977h0.656V31.795z"/>
	<path fill-rule="evenodd" clip-rule="evenodd" fill="#5DA552" d="M85.398,0c1.902,0,3.443,1.542,3.443,3.443
		c0,1.902-1.541,3.444-3.443,3.444c-1.902,0-3.443-1.542-3.443-3.444C81.955,1.542,83.496,0,85.398,0 M41.277,24.908
		c0-3.071,4.541-3.461,7.397-3.461h0.967v0.52c0,2.682-2.092,5.796-5.033,5.796C42.359,27.763,41.277,26.379,41.277,24.908z
		 M72.432,24.12c-0.002-1.235-1.002-2.236-2.236-2.236c-2.313,0-4.45,1.742-4.45,4.005v4.789c0,0.623-0.495,1.117-1.116,1.117
		h-4.473v-1.823c-1.218,1.313-3.167,2.072-4.945,2.072c-2.467,0-4.636-1.31-5.357-3.741c-0.371,0.717-2.201,3.741-6.586,3.741
		c-3.936,0-7.526-2.465-7.526-6.877c0-6.756,8.921-7.614,13.104-7.614h0.795l0.005-1.107c0.011-2.123-1.232-3.377-4.013-3.377
		c-1.256-0.001-2.756,0.165-3.316,0.36c-0.424,0.147-0.776,0.56-0.776,1.066v0.556h-3.712v-4.276c0-0.461,0.273-0.844,0.664-1.019
		c1.328-0.593,5.215-0.717,6.758-0.716c5.125,0.007,9.973,1.277,9.973,7.417v9.686c0,1.114,0.926,1.785,1.785,1.785
		c1.908,0,3.149-1.556,3.149-3.148V4.969c0-0.559-0.486-1.118-1.125-1.118h-0.556V0.498h6.153c0.621,0,1.116,0.493,1.116,1.117
		v18.216l2.167-1.055c2.023-0.984,3.746-2.466,3.746-4.91c0-0.56-0.488-1.119-1.127-1.119h-0.557V9.456h5.986
		c0.621,0,1.117,0.493,1.117,1.118v2.239c-0.001,2.368-1.173,3.951-2.757,5.125c2.134,0.583,3.702,2.536,3.702,4.854l0.002,3.363
		c0,1.115,0.927,1.786,1.786,1.786c1.909,0,3.15-1.557,3.149-3.151l-0.002-10.926c0-0.56-0.488-1.118-1.127-1.118h-0.555V9.394
		c2.051,0,4.102,0,6.152,0c0.623,0,1.117,0.494,1.117,1.118l0.001,15.461c0,1.193,0.992,1.912,1.912,1.912
		c2.044,0,3.372-1.665,3.372-3.372V13.85c0-0.559-0.488-1.117-1.126-1.117H92.15V9.379h3.916c1.728,0,3.057,1.264,3.311,2.814
		c1.926-1.943,4.3-2.814,7.01-2.814c3.259,0,5.328,2.155,5.328,5.377V26.1c0,1.114,0.926,1.785,1.785,1.785
		c1.063,0,1.919-0.483,2.469-1.187c-0.509-1.407-0.75-2.964-0.743-4.494c0.026-6.257,4.304-13.204,13.162-13.177
		c1.773,0.005,3.523,0.177,5.312,0.755c0.256,0.083,0.771,0.394,0.771,1.064v19.248c0,9.727-8.984,13.759-16.683,9.589l1.281-3.781
		c1.348,0.682,2.879,1.039,4.326,1.014c2.958-0.052,5.572-1.93,5.572-6.047v-2.39c-0.628,1.55-2.916,3.503-6.015,3.503
		c-2.539,0-4.409-1.122-5.674-2.81c-1.334,1.78-3.307,2.827-5.576,2.827c-3.029,0-5.576-2.072-5.576-5.233l-0.001-10.682
		c-0.001-3.708-6.706-2.592-6.706,2.135v13.515h-4.472c-0.622,0-1.116-0.493-1.116-1.117v-1.088C92.527,31.101,90.582,32,88.535,32
		c-2.064,0-3.951-0.899-4.95-2.758c-0.194,0.26-0.415,0.522-0.665,0.789c-1.178,1.253-3.121,2.028-4.906,2.028
		c-3.047,0-5.57-2.072-5.577-5.236L72.432,24.12z M128.886,13.618l-0.071,9.259c-0.016,2.142-2.08,4.634-4.268,4.634
		c-2.68,0-3.777-2.405-3.809-5.341c-0.042-3.962,2.251-8.642,6.841-8.652C128.004,13.517,128.44,13.55,128.886,13.618z"/>
</g>
<g>
	<path fill="#4F4743" d="M30.942,61.629V45.924h1.096v15.705H30.942z"/>
	<path fill="#4F4743" d="M44.359,61.629v-7.573c0-1.175-0.247-2.028-0.741-2.562c-0.494-0.534-1.261-0.801-2.299-0.801
		c-1.397,0-2.419,0.353-3.067,1.059c-0.648,0.705-0.972,1.849-0.972,3.432v6.445h-1.063V49.952h0.902l0.204,1.601h0.064
		c0.759-1.218,2.109-1.826,4.05-1.826c2.649,0,3.975,1.422,3.975,4.265v7.638H44.359z"/>
	<path fill="#4F4743" d="M57.335,61.629v-7.573c0-1.175-0.247-2.028-0.741-2.562c-0.494-0.534-1.261-0.801-2.299-0.801
		c-1.396,0-2.419,0.353-3.067,1.059c-0.648,0.705-0.972,1.849-0.972,3.432v6.445h-1.063V49.952h0.902l0.204,1.601h0.065
		c0.759-1.218,2.109-1.826,4.05-1.826c2.649,0,3.975,1.422,3.975,4.265v7.638H57.335z"/>
	<path fill="#4F4743" d="M71.827,55.774c0,1.905-0.462,3.393-1.386,4.464c-0.924,1.07-2.198,1.605-3.824,1.605
		c-1.024,0-1.927-0.247-2.707-0.741c-0.78-0.494-1.379-1.203-1.794-2.127c-0.415-0.924-0.623-1.991-0.623-3.201
		c0-1.905,0.462-3.39,1.386-4.452c0.924-1.064,2.191-1.596,3.803-1.596c1.604,0,2.863,0.539,3.775,1.617
		C71.371,52.421,71.827,53.898,71.827,55.774z M62.61,55.774c0,1.604,0.352,2.856,1.058,3.755c0.706,0.898,1.703,1.348,2.992,1.348
		s2.286-0.449,2.992-1.348c0.705-0.899,1.058-2.15,1.058-3.755c0-1.611-0.356-2.861-1.069-3.749
		c-0.712-0.888-1.713-1.332-3.002-1.332c-1.289,0-2.283,0.442-2.98,1.326C62.958,52.904,62.61,54.156,62.61,55.774z"/>
	<path fill="#4F4743" d="M77.617,61.629l-4.512-11.677h1.096l3.019,7.938c0.401,1.017,0.702,1.905,0.902,2.664h0.064
		c0.294-0.974,0.595-1.869,0.902-2.686l3.019-7.917h1.096l-4.512,11.677H77.617z"/>
	<path fill="#4F4743" d="M92.248,61.629l-0.269-1.848h-0.086c-0.587,0.752-1.19,1.283-1.81,1.596
		c-0.62,0.311-1.353,0.467-2.197,0.467c-1.146,0-2.037-0.294-2.675-0.881c-0.638-0.587-0.956-1.4-0.956-2.438
		c0-1.139,0.475-2.023,1.424-2.653c0.948-0.63,2.321-0.963,4.119-0.999l2.224-0.064v-0.773c0-1.11-0.226-1.948-0.677-2.514
		c-0.451-0.565-1.178-0.849-2.181-0.849c-1.081,0-2.202,0.301-3.362,0.902l-0.397-0.924c1.282-0.602,2.55-0.902,3.803-0.902
		c1.282,0,2.239,0.333,2.874,0.999c0.633,0.666,0.95,1.704,0.95,3.115v7.767H92.248z M87.951,60.877
		c1.246,0,2.229-0.356,2.949-1.068c0.719-0.713,1.079-1.703,1.079-2.971v-1.149l-2.041,0.086c-1.64,0.079-2.81,0.335-3.507,0.769
		c-0.699,0.433-1.048,1.107-1.048,2.025c0,0.73,0.224,1.298,0.671,1.702C86.502,60.675,87.134,60.877,87.951,60.877z"/>
	<path fill="#4F4743" d="M99.896,60.898c0.673,0,1.261-0.058,1.762-0.172v0.859c-0.516,0.172-1.11,0.258-1.783,0.258
		c-1.031,0-1.792-0.275-2.282-0.827c-0.491-0.552-0.736-1.418-0.736-2.6v-7.541h-1.729v-0.623l1.729-0.483l0.537-2.643h0.548v2.825
		h3.427v0.924h-3.427v7.391c0,0.896,0.157,1.558,0.473,1.987C98.729,60.684,99.223,60.898,99.896,60.898z"/>
	<path fill="#4F4743" d="M104.032,46.708c0-0.688,0.226-1.031,0.677-1.031c0.222,0,0.396,0.09,0.521,0.269
		c0.126,0.179,0.188,0.434,0.188,0.763c0,0.322-0.063,0.576-0.188,0.763c-0.125,0.187-0.299,0.279-0.521,0.279
		C104.257,47.75,104.032,47.402,104.032,46.708z M105.246,61.629h-1.063V49.952h1.063V61.629z"/>
	<path fill="#4F4743" d="M111.712,61.629l-4.512-11.677h1.096l3.019,7.938c0.401,1.017,0.702,1.905,0.902,2.664h0.064
		c0.294-0.974,0.595-1.869,0.902-2.686l3.019-7.917h1.096l-4.512,11.677H111.712z"/>
	<path fill="#4F4743" d="M123.969,61.844c-1.697,0-3.021-0.522-3.97-1.568c-0.948-1.046-1.423-2.51-1.423-4.394
		c0-1.862,0.458-3.354,1.375-4.474c0.917-1.121,2.152-1.682,3.706-1.682c1.375,0,2.46,0.479,3.255,1.439
		c0.795,0.96,1.192,2.263,1.192,3.91v0.859h-8.411c0.015,1.604,0.389,2.829,1.122,3.674c0.734,0.845,1.785,1.267,3.153,1.267
		c0.666,0,1.251-0.047,1.757-0.14c0.504-0.093,1.144-0.294,1.917-0.602v0.967c-0.659,0.286-1.268,0.481-1.826,0.585
		C125.258,61.792,124.642,61.844,123.969,61.844z M123.658,50.672c-1.124,0-2.026,0.371-2.707,1.111
		c-0.681,0.742-1.078,1.811-1.192,3.207h7.219c0-1.354-0.294-2.412-0.881-3.174C125.509,51.053,124.696,50.672,123.658,50.672z"/>
	<path fill="#4F4743" d="M145.98,57.579c0,1.31-0.481,2.349-1.445,3.115c-0.963,0.767-2.243,1.149-3.84,1.149
		c-1.919,0-3.391-0.211-4.415-0.634v-1.096c1.132,0.479,2.574,0.72,4.329,0.72c1.289,0,2.311-0.295,3.066-0.887
		c0.756-0.59,1.134-1.365,1.134-2.325c0-0.595-0.125-1.087-0.376-1.478c-0.251-0.39-0.659-0.746-1.225-1.068
		c-0.565-0.322-1.396-0.67-2.492-1.042c-1.604-0.552-2.713-1.147-3.324-1.788c-0.613-0.642-0.919-1.495-0.919-2.563
		c0-1.175,0.46-2.133,1.38-2.873c0.921-0.742,2.104-1.112,3.551-1.112c1.476,0,2.861,0.279,4.157,0.838l-0.398,0.945
		c-1.304-0.544-2.55-0.816-3.738-0.816c-1.16,0-2.084,0.269-2.771,0.806c-0.688,0.537-1.031,1.268-1.031,2.191
		c0,0.58,0.106,1.057,0.316,1.429c0.212,0.372,0.558,0.707,1.037,1.005c0.48,0.297,1.304,0.653,2.471,1.068
		c1.225,0.423,2.145,0.832,2.761,1.23c0.616,0.396,1.065,0.848,1.349,1.354C145.838,56.252,145.98,56.863,145.98,57.579z"/>
	<path fill="#4F4743" d="M158.688,55.774c0,1.905-0.463,3.393-1.387,4.464c-0.924,1.07-2.197,1.605-3.824,1.605
		c-1.023,0-1.926-0.247-2.707-0.741c-0.78-0.494-1.379-1.203-1.794-2.127c-0.415-0.924-0.623-1.991-0.623-3.201
		c0-1.905,0.462-3.39,1.386-4.452c0.924-1.064,2.191-1.596,3.802-1.596c1.605,0,2.863,0.539,3.775,1.617
		C158.231,52.421,158.688,53.898,158.688,55.774z M149.471,55.774c0,1.604,0.353,2.856,1.058,3.755
		c0.706,0.898,1.703,1.348,2.992,1.348c1.289,0,2.287-0.449,2.992-1.348c0.705-0.899,1.059-2.15,1.059-3.755
		c0-1.611-0.357-2.861-1.07-3.749c-0.711-0.888-1.713-1.332-3.002-1.332c-1.289,0-2.283,0.442-2.98,1.326
		C149.82,52.904,149.471,54.156,149.471,55.774z"/>
	<path fill="#4F4743" d="M166.261,50.876h-2.75v10.753h-1.063V50.876h-2.17v-0.623l2.17-0.397v-0.902
		c0-1.433,0.262-2.483,0.789-3.152c0.525-0.67,1.387-1.005,2.584-1.005c0.645,0,1.289,0.097,1.934,0.29l-0.248,0.924
		c-0.572-0.179-1.143-0.269-1.707-0.269c-0.832,0-1.42,0.245-1.767,0.735c-0.348,0.491-0.521,1.288-0.521,2.391v1.085h2.75V50.876z"
		/>
	<path fill="#4F4743" d="M171.601,60.898c0.672,0,1.26-0.058,1.762-0.172v0.859c-0.516,0.172-1.111,0.258-1.783,0.258
		c-1.031,0-1.793-0.275-2.283-0.827c-0.49-0.552-0.736-1.418-0.736-2.6v-7.541h-1.729v-0.623l1.729-0.483l0.537-2.643h0.549v2.825
		h3.426v0.924h-3.426v7.391c0,0.896,0.156,1.558,0.473,1.987C170.433,60.684,170.927,60.898,171.601,60.898z"/>
	<path fill="#4F4743" d="M185.222,61.629l-2.557-7.81c-0.166-0.53-0.377-1.307-0.635-2.331h-0.064l-0.225,0.795l-0.484,1.558
		l-2.6,7.788h-1.053l-3.34-11.677h1.139l1.869,6.768c0.436,1.676,0.723,2.907,0.859,3.695h0.064c0.422-1.676,0.73-2.789,0.924-3.341
		l2.406-7.122h0.967l2.287,7.101c0.516,1.683,0.832,2.797,0.945,3.341h0.064c0.059-0.466,0.344-1.712,0.859-3.738l1.783-6.703h1.074
		l-3.168,11.677H185.222z"/>
	<path fill="#4F4743" d="M198.886,61.629l-0.27-1.848h-0.086c-0.586,0.752-1.189,1.283-1.809,1.596
		c-0.621,0.311-1.354,0.467-2.197,0.467c-1.146,0-2.037-0.294-2.676-0.881c-0.637-0.587-0.955-1.4-0.955-2.438
		c0-1.139,0.475-2.023,1.424-2.653c0.947-0.63,2.32-0.963,4.119-0.999l2.223-0.064v-0.773c0-1.11-0.225-1.948-0.676-2.514
		c-0.451-0.565-1.178-0.849-2.182-0.849c-1.08,0-2.201,0.301-3.361,0.902l-0.398-0.924c1.283-0.602,2.551-0.902,3.803-0.902
		c1.283,0,2.24,0.333,2.875,0.999c0.633,0.666,0.949,1.704,0.949,3.115v7.767H198.886z M194.589,60.877
		c1.246,0,2.229-0.356,2.949-1.068c0.719-0.713,1.078-1.703,1.078-2.971v-1.149l-2.041,0.086c-1.639,0.079-2.809,0.335-3.506,0.769
		c-0.699,0.433-1.049,1.107-1.049,2.025c0,0.73,0.225,1.298,0.672,1.702C193.14,60.675,193.772,60.877,194.589,60.877z"/>
	<path fill="#4F4743" d="M208.048,49.727c0.494,0,1.025,0.05,1.59,0.15l-0.203,1.021c-0.488-0.122-0.992-0.183-1.516-0.183
		c-0.994,0-1.811,0.423-2.449,1.268c-0.637,0.845-0.955,1.912-0.955,3.201v6.445h-1.064V49.952h0.902l0.107,2.105h0.076
		c0.479-0.859,0.992-1.463,1.535-1.81C206.616,49.9,207.274,49.727,208.048,49.727z"/>
	<path fill="#4F4743" d="M216.728,61.844c-1.697,0-3.02-0.522-3.969-1.568c-0.949-1.046-1.424-2.51-1.424-4.394
		c0-1.862,0.459-3.354,1.375-4.474c0.918-1.121,2.152-1.682,3.707-1.682c1.375,0,2.459,0.479,3.254,1.439
		c0.795,0.96,1.193,2.263,1.193,3.91v0.859h-8.412c0.016,1.604,0.389,2.829,1.123,3.674c0.734,0.845,1.785,1.267,3.152,1.267
		c0.666,0,1.252-0.047,1.758-0.14c0.504-0.093,1.143-0.294,1.916-0.602v0.967c-0.658,0.286-1.268,0.481-1.826,0.585
		C218.017,61.792,217.401,61.844,216.728,61.844z M216.417,50.672c-1.125,0-2.027,0.371-2.707,1.111
		c-0.682,0.742-1.078,1.811-1.193,3.207h7.219c0-1.354-0.293-2.412-0.881-3.174C218.269,51.053,217.454,50.672,216.417,50.672z"/>
</g>
</svg>
